<svg xmlns="http://www.w3.org/2000/svg" viewBox="0 0 337.45 435.81"><defs><style>.cls-1{fill:#34a853;}.cls-2{fill:#ea4235;}.cls-3{fill:#4286f5;}.cls-4{fill:#fabc05;}</style></defs><title>Fichier 7</title><g id="Calque_2" data-name="Calque 2"><g id="Calque_1-2" data-name="Calque 1"><polygon class="cls-1" points="46.67 435.81 66.22 312.7 0 312.7 0 256.7 76.44 256.7 88.44 178.92 150.67 178.92 108 435.81 46.67 435.81"/><polygon class="cls-2" points="290.78 0 271.23 123.11 337.45 123.11 337.45 179.11 261.01 179.11 249.01 256.89 186.78 256.89 229.45 0 290.78 0"/><polygon class="cls-3" points="209.06 122.72 199.73 178.93 24.44 178.93 24.44 121.58 100 121.58 119.11 0.01 181.33 0.01 160.5 122.19 209.06 122.72"/><polygon class="cls-4" points="128.41 313.09 137.74 256.89 313.03 256.89 313.03 314.23 237.47 314.23 218.36 435.81 156.14 435.81 176.97 313.62 128.41 313.09"/></g></g></svg>