<svg id="Calque_1" data-name="Calque 1" xmlns="http://www.w3.org/2000/svg" viewBox="0 0 1417.32 1417.32"><defs><style>.cls-1{fill:#fff;stroke:#000;stroke-miterlimit:10;stroke-width:25px;}</style></defs><title>Logo</title><circle class="cls-1" cx="361.98" cy="370.5" r="255.33"/><rect class="cls-1" x="756.84" y="115.16" width="510.67" height="510.67"/><rect class="cls-1" x="757.67" y="781.32" width="510.67" height="510.67"/><rect class="cls-1" x="107.48" y="781.32" width="510.67" height="510.67"/><path d="M293.27,245.5h32.27V468.42H432.36v27.07H293.27Z"/><path d="M1123.64,368c0,83.33-50.65,127.51-112.43,127.51-63.93,0-108.83-49.56-108.83-122.84,0-76.86,47.77-127.15,112.42-127.15C1080.89,245.5,1123.64,296.14,1123.64,368Zm-187.86,3.95c0,51.73,28,98.06,77.23,98.06,49.57,0,77.58-45.62,77.58-100.57,0-48.13-25.14-98.42-77.22-98.42C961.64,271,935.78,318.77,935.78,371.93Z"/><path d="M267.69,1163.36V910h35.72l81.21,128.2c18.8,29.7,33.46,56.39,45.49,82.34l.75-.38c-3-33.84-3.76-64.67-3.76-104.14V910h30.83v253.4H424.85l-80.46-128.58c-17.67-28.2-34.59-57.15-47.37-84.59l-1.13.37c1.88,32,2.63,62.41,2.63,104.52v108.28Z"/><path d="M1114,1149.73c-14.37,5.15-42.73,13.63-76.24,13.63-37.57,0-68.51-9.58-92.82-32.78-21.36-20.63-34.62-53.78-34.62-92.45.37-74,51.2-128.17,134.44-128.17,28.72,0,51.19,6.26,61.87,11.42l-7.73,26.14c-13.26-5.89-29.84-10.68-54.88-10.68-60.4,0-99.81,37.57-99.81,99.82,0,63,37.93,100.18,95.76,100.18,21,0,35.36-2.95,42.72-6.63v-74h-50.46v-25.79H1114Z"/></svg>