<?xml version="1.0" encoding="utf-8"?>
<!-- Generator: Adobe Illustrator 19.0.0, SVG Export Plug-In . SVG Version: 6.00 Build 0)  -->
<svg version="1.1" id="Layer_1" xmlns="http://www.w3.org/2000/svg" xmlns:xlink="http://www.w3.org/1999/xlink" x="0px" y="0px"
	 viewBox="0 0 500 500" style="enable-background:new 0 0 500 500;" xml:space="preserve">
<style type="text/css">
	.st0{fill:#F11E22;}
	.st1{fill:#FFFFFF;}
</style>
<g id="XMLID_1_">
	<rect id="XMLID_6_" x="67.5" y="167.4" class="st0" width="365" height="165.2"/>
	<polygon id="XMLID_7_" class="st1" points="382.7,190.9 403.1,190.9 403.1,287.7 420.4,287.7 420.4,312.1 382.7,312.1 	"/>
	<path id="XMLID_11_" class="st1" d="M241.9,248.6c14.7-0.9,13.3-19.1,13.3-19.1c-2.2-17.8-13.3-16.9-13.3-16.9V248.6z M194.9,276.6
		l-6.2-36.9l-5.3,36.9H194.9z M82.5,311.6V190.9H110l9.8,50.6l11.1-50.6h26.6v108.8l17.3-108.8H202l16.9,108.8V191.3h36
		c0,0,12.4,2.2,18.7,19.5l-2.7-20h21.8l10.2,62.6l10.7-62.2h61.3V214h-18.2v24.9h17.3v25.3h-16.9v23.1h17.8v24.4h-39.5V195.3
		l-20.4,116.3h-24.4l-12.9-77.3c0,0-2.2,21.3-14.2,31.1l15.5,46.2h-21.3l-15.1-40.4v40.4h-43.1l-2.2-11.5h-16.4l-3.6,11.5h-40.9
		v-44.4l-10.7,44.4h-11.1l-9.8-44v43.5L82.5,311.6z"/>
</g>
</svg>
