<?xml version="1.0" encoding="utf-8"?>
<!-- Generator: Adobe Illustrator 16.0.0, SVG Export Plug-In . SVG Version: 6.00 Build 0)  -->
<!DOCTYPE svg PUBLIC "-//W3C//DTD SVG 1.1//EN" "http://www.w3.org/Graphics/SVG/1.1/DTD/svg11.dtd">
<svg version="1.1" id="Calque_1" xmlns="http://www.w3.org/2000/svg" xmlns:xlink="http://www.w3.org/1999/xlink" x="0px" y="0px"
	 width="297.641px" height="342px" viewBox="0 221.099 297.641 342" enable-background="new 0 221.099 297.641 342"
	 xml:space="preserve">
<g>
	<path fill="#A00D1C" d="M15.288,297.62c-0.035,0.097-0.076,0.188-0.104,0.29c-0.297,1.031-0.43,2.09-0.437,3.155
		c-2.885,1.425-13.118,5.798-6.061,16.285c-1.641-6.137,6.012-8.128,8.314-8.495c-0.124,1.287-0.048,2.74,0.25,4.248
		c-2.85,2.898-8.911,12.197,1.356,17.331c-3.404-5.542,2.117-8.311,3.044-9.153c11.657,11.99,18.699-6.566,31.402,3.86
		c0.802,0.754,1.598,1.584,2.394,2.588c9.098,11.74,19.274,15.067,30.185,20.264c-6.752-5.237-8.28-15.919-8.586-21.668
		c3.404,1.528,8.967,3.376,16.101,3.217c-9.936-6.095-11.831-13.644-12.849-24.325c-6.039-1.867-10.355-2.233-21.245-9.664
		c-0.042-0.042-0.083-0.076-0.132-0.111c-6.274-5.168-14.771-15.27-23.086-15.822c-1.121-0.076-2.221-0.006-3.279,0.188
		c-4.851-2.241-15.856-6.157-19.115,6.185c3.909-4.254,8.724-1.93,10.488-0.836c-1.011,1.363-1.667,2.85-1.909,4.379h-0.09
		c-9.195-0.914-18.126,2.138-17.927,11.409C5.636,298.672,9.02,295.849,15.288,297.62z"/>
	<path fill="#A00D1C" d="M264.273,366.84c-4.677,8.558-11.947,28.892,8.425,55.182c0-29.611,12.149-37.264,16.64-43.476
		c4.938-6.854,2.566-12.847,0.732-16.243c-2.412-4.422-0.913-7.888-0.145-11.782c1.91-9.527,0.389-34.932-23.516-36.218
		c-24.72-1.337-50.477,25.445-32.421,109.44c3.392,15.788,1.564,40.653-29.825,40.653c-41.877,0-44.428-51.765-29.616-71.08
		c-2.151,1.868-12.301,6.8-31.948,6.081c1.901-2.657,5.714-8.654,6.565-11.271c-17.746,10.703-34.046,0.166-36.641-3.127
		c4.124-2.096,8.558-4.435,11.152-12.619c-3.972,3.396-17.814,6.69-30.745,2.615c-2.753-0.872-5.466-2.055-8.032-3.661
		c8.537-3.9,12.847-9.989,13.926-12.528c-2.746,0.989-17.669,4.489-36.611,4.137c-9.402-0.042-15.946-3.431-24.347-5.286
		c-5.265-1.142-9.651-0.263-12.771,2.283c-5.106,0.068-18.756,1.521-16.266,14.211c1.792-6.602,8.952-6.026,11.512-5.646
		c-0.021,0.09-0.04,0.166-0.062,0.256c-1.771,1.377-3.189,3.479-4.082,5.854c-3.507,1.557-16.466,8.004-9.049,18.596
		c0.249-5.797,5.375-8.205,8.682-9.027c0.347,1.023,0.866,2.124,1.626,3.202c-2.594,3.563-7.596,11.657,2.097,17.29
		c-1.716-4.994,1.321-9.5,4.489-12.219c0.188,1.237,0.54,2.526,1.094,3.771c-1.114,2.996-3.403,16.342,8.695,16.064
		c-4.399-2.068-2.393-7.816-1.562-9.729c0.955,0.25,1.993,0.401,3.141,0.401c14.909,0,7.521-9.562,51.085-16.812
		c1.155-0.194,2.255,0.007,3.196,0.048c-11.263,45.599,25.113,54.145,25.113,72.43c0,6.393-4.732,11.346-13.449,11.346H18.94v19.586
		l267.15-0.014v-19.572H241.83c14.681-17.726,14.225-38.757,10.051-51.839c-23.657-74.318,1.885-94.125,14.53-92.271
		c13.312,1.958,15.087,16.085,7.776,26.705C268.763,360.461,268.097,359.804,264.273,366.84z"/>
	<path fill="#A00D1C" d="M128.715,533.09l-1.695-0.742l1.633-0.919c3.152-1.922,6.339-4.403,6.339-10.283
		c0-6.524-5.661-12.682-16.475-12.682c-10.801,0-18.073,5.025-18.073,13.14c0,5.422,2.318,8.106,5.796,10.447l1.406,0.933
		l-1.52,0.904c-5.422,2.665-8.143,6.008-8.143,11.084c0,8.742,7.245,14.156,18.949,14.156c12.354,0,20.044-5.731,20.044-14.949
		C136.977,538.9,134.277,535.67,128.715,533.09z M117.406,514.825c4.27,0,7.379,3.251,7.379,7.726c0,3.294-1.782,5.278-3.731,6.935
		l-0.565,0.495l-0.954-0.305c-3.994-1.271-8.963-2.851-8.963-8.622C110.571,517.999,113.13,514.825,117.406,514.825z
		 M117.887,552.767c-4.723,0-9.465-2.688-9.465-8.688c0-3.394,2.699-6.855,5.14-7.873l1.795,0.232
		c4.297,1.279,11.024,3.252,11.024,9.309C126.382,549.861,122.898,552.767,117.887,552.767z"/>
	<path fill="#A00D1C" d="M172.789,508.463c-12.455,0-19.578,9.026-19.578,25.571c0,16.47,6.785,25.092,19.099,25.092
		c12.474,0,19.345-8.622,19.345-25.092C191.653,517.256,184.959,508.463,172.789,508.463z M172.626,552.221
		c-7.146,0-8.608-7.451-8.608-18.66c0-8.085,0-18.143,8.213-18.143c7.569,0,8.624,9.285,8.624,19.321
		C180.854,542.523,180.854,552.221,172.626,552.221z"/>
	<path fill="#A00D1C" d="M220.369,525.531v-9.475h19.798l0.91-6.778h-6.792h-0.439h-0.781H211.71v23.93
		c17.855-4.618,21.461,5.799,21.221,10.119c-0.469,8.092-8.801,13.37-22.773,7.659l-2.397,5.194
		c3.824,1.909,8.517,2.951,13.683,2.951c16.585,0,21.897-9.332,21.897-17.303C243.338,534.876,237.848,524.352,220.369,525.531z"/>
	<path fill="#A00D1C" d="M72.935,551.617V508.31h-2.657l-14.307,11.938v1.398h7.195l-0.007,29.97c0,3.185-0.734,2.554-6.739,4.762
		l-0.014,2.109c0,0,22.976,0,23.156,0c0.089,0,0.138,0,0.138,0l-0.006-2.109C73.875,554.247,72.935,554.802,72.935,551.617z"/>
	<path fill="#A00D1C" d="M107.163,329.135c2.504,0.498,0.894,1.792-0.089,2.338c-9.188,5.037-16.507,4.421-21.786,2.56
		c2.158,11.858,14.433,16.943,22.795,10.73c7.854-5.681,13.062-5.237,15.29-4.512c1.619,0.588,2.339,1.925-0.041,2.207
		c-5.168,0.582-12.279,3.8-15.173,12.744c-3.085,9.52-7.651,13.27-10.128,13.857c5.106,1.486,17.6,1.155,24.512-2.649
		c4.802-2.636,9.396-10.966,15.628-10.674c0.948,0.096,1.558,0.221,0.125,1.68c-0.726,0.699-5.631,5.397-7.201,12.495
		c-0.449,1.986-2.478,11.416-7.383,14.363c14.273,5.134,31.874-3.147,33.582-23.599c0.141-1.675,1.294-2.539,2.006,0
		c4.124,14.75-4.386,29.775-5.423,31.11c25.114-2.761,25.778-19.793,25.487-23.217c0.186-3.521-4.565-18.646,0.401-23.024
		c1.293-1.147,2.399-0.886,2.033,1.411c-0.65,3.992,2.435,10.185,4.033,14.391c4.192,10.931-0.666,19.98-4.636,24.608
		c2.679-1.272,22.714-9.77,19.108-27.527c-0.774-3.8-5.841-11.354-5.716-19.477c0.068-4.123,2.596-8.675,3.95-9.727
		c1.425-1.08,2.409-0.291,2.099,1.147c-0.473,2.04-1.107,9.271,2.414,14.459c1.002,1.48,4.564,6.994,4.904,17.123
		c13.269-18.251,7.118-29.542,4.206-33.838c-10.204-15.103-5.776-24.809-4.636-27.271c0.77-1.688,2.532-2.034,2.921-0.271
		c0.38,1.764-0.389,13.2,8.779,23.667c2.761,3.744,2.322,8.24,2.642,10.267c16.631-33.221-1.514-63.517-8.641-73.396l-0.007-0.007
		c-0.978-1.459-2.223-3.279-4.49-6.302c7.229-5.896,10.985-14.059,6.913-18.017c-3.933-3.812-12.647-0.304-18.951,3.743
		c-1.419-1.342-2.727-2.387-3.818-2.961c-0.575-0.457,0.623,0.256-0.575-0.457c0,0,6.976-9.388,0.506-12.619
		c-7.36-3.68-15.752,5.825-15.752,5.825c-11.431-3.085-27.545-3.583-44.39,7.534c-3.583,2.56-6.891,3.384-8.759,4.103
		c-1.225,0.395-4.317,2.146-4.352,7.063c0.11,0.921,0.325,1.501,1.619,1.205c4.192-1.177,7.3-3.362,10.066-4.312
		c2.338-1.044,4.905,0.54,2.083,2.408c-3.619,2.124-7.258,4.248-9.126,6.656c-1.045,1.245-5.182,6.481,0.99,14.417
		c1.806-2.947,7.948-10.212,16.701-9.083c6.385,0.574,13.705,5.983,16.161,14.709c-13-2.823-19.82-3.487-32.398-0.188
		c-9.741,2.566-17.539,2.131-27.044-2.732c1.993,5.722,10.419,18.465,30.988,9.554c14.597-6.331,29.298,0.319,29.298,0.319
		c-0.021,0.844-0.083,1.7-0.193,2.572c-0.76,7.03-8.061,15.242-17.725,11.092c-3.369-1.716-5.624-4.021-7.485-10.406
		c-1.972,1.211-5.016,5.119-2.602,9.935c0.414,1.114,0.18,1.807-0.899,2.636c-1.107,0.686-1.737,2.276-0.844,3.889
		c7.479,13.353,32.655,7.334,37.041-11.885c0.311-1.053,1.646-1.177,1.604,0.663c-0.588,24.838-29.514,37.312-49.625,15.892
		c-2.407-2.353-4.635-2.478-7.921-1.653c-3.611,1.079-14.909,3.501-22.562,2.117C87.412,311.639,87.758,324.431,107.163,329.135z
		 M152.873,249.443c-0.899-3.482-3.508-8.08-5.715-10.145c9.917-4.354,21.941-2.449,24.465-0.344
		C161.889,241.06,156.162,245.407,152.873,249.443z"/>
</g>
</svg>
